/* XPM */
static char * a16_xpm[] = {
"16 16 32 1",
" 	c None",
".	c #FDD61A",
"+	c #FED71A",
"@	c #FFD81B",
"#	c #FFE288",
"$	c #FFFFFF",
"%	c #FFF6DD",
"&	c #FFFAEC",
"*	c #FFF8E8",
"=	c #FFFCF3",
"-	c #FFFBF1",
";	c #FFD936",
">	c #FFD933",
",	c #FFFCF6",
"'	c #FFECB7",
")	c #FFFAEE",
"!	c #FFFDF9",
"~	c #FFFDF8",
"{	c #FFFAED",
"]	c #FFEDBB",
"^	c #FFE79E",
"/	c #FFF3D4",
"(	c #FFFEFB",
"_	c #FFFEFA",
":	c #FFF3D5",
"<	c #FFE7A1",
"[	c #FFF2D2",
"}	c #FFFEF9",
"|	c #FFFDF7",
"1	c #FFDC51",
"2	c #FFFBEF",
"3	c #FFF9EA",
".+@@@@@@@@@     ",
"+@@@@@@@@@@@@   ",
"@@#@@@@@@@@@@@  ",
"@@@@@@@@@@@@@@@ ",
"@@@@$%@&*@%$@@@ ",
"@@@@$%@&*@%$@@@@",
"@@@@$%@&*@%$@@@@",
"@@@@$%@&*@%$@@@@",
"@@@@=-;&*>-,@@@@",
"@@@@'$)!~{$]@@@@",
"@@@@@^/(_:<@@@@@",
" @@@@@[}|[@@@@@ ",
" @@@@@1231@@@@@ ",
"  @@@@@@@@@@@@  ",
"   @@@@@@@@@@   ",
"     @@@@@@     "};
