/* XPM */
static char * b32_xpm[] = {
"32 32 8 1",
" 	c None",
".	c #000000",
"+	c #030303",
"@	c #020202",
"#	c #010101",
"$	c #050505",
"%	c #040404",
"&	c #060606",
"            .+@#.++.            ",
"         $.#$@.+$.#$@.#         ",
"       #%+#@%      %%.%++       ",
"      @&..            ..%%      ",
"     #%#    +%#+@@@+    ++@     ",
"    .&#   ..&#.+$..$@.   .$@    ",
"   +%.   #+%  +@#%%.+++   #++   ",
"  #%+   #.%%  %#.%%.@%#.   @$+  ",
"  %.   .+%.#%@.+%.#%@.+%#   .+  ",
" $%#  +.%+#@++.%+#@++.++#@  .%@ ",
" ..  .#&..+  #&  %+  &#.%%.  #. ",
" +@  #%@+@+  %#  @+  #+@++#  %# ",
".%& .&#.+%.  #.  ..  .@$..$% +&.",
"@@  %.++@#%  ++  ++  @+#%%#+  #+",
"+#  +.@$#.%  @$  %+  $#.  .@  .@",
".%  @%@.+%#  @.  ##  .+$  %+  %#",
".%  @++.%%#   .  #   .%%@#++  %#",
"+.  +.@$..$          &#.%%.#  .@",
"@+  $#%@+@@+        $@+#++#+  #+",
".%& .&#.+$..&#.  ..&@.@$..$% +&.",
" @@  .%@@@@+#%#  ++#+@+#++#  +# ",
" ..  .@$#. +.+    @.#$#.%%.  #. ",
" &%.  +.%   %+.  ##%+.+%##  .++ ",
"  %.   .+% @%+.%%##%+.+%#   .+  ",
"  .%+   #.%+.@$#.%+.#$#.   #$@  ",
"   +%.   @+%#%@+#++#+@+   #++   ",
"    .&#   ..&#.+$..&@.   .$@    ",
"     #%@    @$@+#@+@    ++#     ",
"      @$..            #.%%      ",
"       .%%#@$      $+.++@       ",
"         &.#%+.+%##%+.@         ",
"            .@+#.++.            "};
